<svg width="128" height="128" xmlns="http://www.w3.org/2000/svg">
  <style>
    path { fill: #222; }
    @media (prefers-color-scheme: dark) {
      path { fill: #fff; }
    }
  </style>
  <path d="M 16 0 C 7.16352 0 0 7.163521 0 16 L 0 112 C 0 120.836479 7.16352 128 16 128 L 112 128 C 120.836479 128 128 120.836479 128 112 L 128 16 C 128 7.163521 120.836479 0 112 0 Z"/>
  <path d="M 107.810188 64.648003 C 107.810188 69.679794 107.327492 74.214195 106.362099 78.251335 C 105.39669 82.288467 103.992493 85.711212 102.149452 88.519653 C 100.306412 91.328102 98.024582 93.492912 95.303894 95.014145 C 92.583221 96.535385 89.467651 97.296005 85.957092 97.296005 C 82.446541 97.296005 79.316345 96.535385 76.566414 95.014145 C 73.816475 93.492912 71.505394 91.328102 69.633095 88.519653 C 67.760796 85.711212 66.341972 82.288467 65.376572 78.251335 C 64.411163 74.214195 63.928471 69.679794 63.928471 64.648003 C 63.928471 59.616203 64.411163 55.08181 65.376572 51.044662 C 66.341972 47.00753 67.760796 43.584793 69.633095 40.776352 C 71.505394 37.967903 73.816475 35.803093 76.566414 34.281853 C 79.316345 32.76062 82.446541 32 85.957092 32 C 89.467651 32 92.583221 32.76062 95.303894 34.281853 C 98.024582 35.803093 100.306412 37.967903 102.149452 40.776352 C 103.992493 43.584793 105.39669 47.00753 106.362099 51.044662 C 107.327492 55.08181 107.810188 59.616203 107.810188 64.648003 Z M 97.015282 64.648003 C 97.015282 62.483162 96.883644 60.025803 96.620354 57.275871 C 96.357056 54.525932 95.83049 51.922318 95.040611 49.464928 C 94.25074 47.007545 93.124443 44.945122 91.661713 43.277611 C 90.19899 41.610092 88.29747 40.776352 85.957092 40.776352 C 83.558212 40.776352 81.627434 41.610092 80.164703 43.277611 C 78.701981 44.945122 77.575691 47.007545 76.78582 49.464928 C 75.995934 51.922318 75.454735 54.525932 75.162193 57.275871 C 74.869644 60.025803 74.723381 62.483162 74.723381 64.648003 C 74.723381 66.812843 74.869644 69.270195 75.162193 72.020126 C 75.454735 74.770065 75.995934 77.344437 76.78582 79.743317 C 77.575691 82.142197 78.701981 84.175354 80.164703 85.842873 C 81.627434 87.510384 83.558212 88.344131 85.957092 88.344131 C 88.29747 88.344131 90.19899 87.510384 91.661713 85.842873 C 93.124443 84.175354 94.25074 82.142197 95.040611 79.743317 C 95.83049 77.344437 96.357056 74.770065 96.620354 72.020126 C 96.883644 69.270195 97.015282 66.812843 97.015282 64.648003 Z M 38.828129 46.393211 L 26.541248 56.486008 L 20.39781 49.20163 L 39.79353 33.57975 L 49.359741 33.57975 L 49.359741 95.716263 L 38.828129 95.716263 Z"/>
</svg>