<svg viewBox="0 0 1000 1000" xmlns="http://www.w3.org/2000/svg" style="background: black">
  <style>
    circle {fill: white}
    circle:nth-child(7n) {opacity: .2}
    circle:nth-child(11n) {opacity: .5}
  </style>

  <circle cx="827" cy="968" r="0.5"></circle>
  <circle cx="785" cy="754" r="1.5"></circle>
  <circle cx="566" cy="190" r="1.5"></circle>
  <circle cx="472" cy="185" r="0.5"></circle>
  <circle cx="327" cy="119" r="0.5"></circle>
  <circle cx="627" cy="694" r="1.5"></circle>
  <circle cx="610" cy="432" r="0.5"></circle>
  <circle cx="910" cy="649" r="1.5"></circle>
  <circle cx="120" cy="977" r="1"></circle>
  <circle cx="446" cy="991" r="1"></circle>
  <circle cx="74" cy="313" r="0.5"></circle>
  <circle cx="419" cy="979" r="1"></circle>
  <circle cx="478" cy="104" r="1"></circle>
  <circle cx="812" cy="507" r="0.5"></circle>
  <circle cx="538" cy="404" r="1"></circle>
  <circle cx="118" cy="567" r="1.5"></circle>
  <circle cx="762" cy="151" r="1.5"></circle>
  <circle cx="418" cy="264" r="1"></circle>
  <circle cx="62" cy="945" r="0.5"></circle>
  <circle cx="946" cy="893" r="0.5"></circle>
  <circle cx="584" cy="471" r="1"></circle>
  <circle cx="951" cy="395" r="1"></circle>
  <circle cx="706" cy="770" r="1.5"></circle>
  <circle cx="549" cy="436" r="1"></circle>
  <circle cx="692" cy="733" r="1.5"></circle>
  <circle cx="525" cy="643" r="0.5"></circle>
  <circle cx="404" cy="829" r="0.5"></circle>
  <circle cx="131" cy="296" r="0.5"></circle>
  <circle cx="177" cy="274" r="1.5"></circle>
  <circle cx="250" cy="199" r="1"></circle>
  <circle cx="176" cy="767" r="1"></circle>
  <circle cx="65" cy="465" r="0.5"></circle>
  <circle cx="857" cy="621" r="1.5"></circle>
  <circle cx="461" cy="756" r="1.5"></circle>
  <circle cx="391" cy="429" r="1"></circle>
  <circle cx="710" cy="855" r="1"></circle>
  <circle cx="968" cy="696" r="1"></circle>
  <circle cx="557" cy="393" r="0.5"></circle>
  <circle cx="793" cy="725" r="1"></circle>
  <circle cx="341" cy="396" r="1.5"></circle>
  <circle cx="579" cy="590" r="1"></circle>
  <circle cx="514" cy="445" r="0.5"></circle>
  <circle cx="857" cy="822" r="1.5"></circle>
  <circle cx="567" cy="508" r="0.5"></circle>
  <circle cx="956" cy="741" r="1"></circle>
  <circle cx="190" cy="642" r="0.5"></circle>
  <circle cx="535" cy="116" r="0.5"></circle>
  <circle cx="115" cy="250" r="0.5"></circle>
  <circle cx="240" cy="887" r="1"></circle>
  <circle cx="530" cy="535" r="1.5"></circle>
  <circle cx="806" cy="104" r="1.5"></circle>
  <circle cx="847" cy="543" r="1"></circle>
  <circle cx="917" cy="463" r="1"></circle>
  <circle cx="853" cy="291" r="0.5"></circle>
  <circle cx="860" cy="776" r="0.5"></circle>
  <circle cx="170" cy="639" r="1.5"></circle>
  <circle cx="72" cy="616" r="1"></circle>
  <circle cx="484" cy="537" r="0.5"></circle>
  <circle cx="461" cy="683" r="1.5"></circle>
  <circle cx="475" cy="208" r="1"></circle>
  <circle cx="80" cy="570" r="0.5"></circle>
  <circle cx="104" cy="564" r="1"></circle>
  <circle cx="541" cy="935" r="1"></circle>
  <circle cx="699" cy="837" r="1.5"></circle>
  <circle cx="967" cy="288" r="1"></circle>
  <circle cx="358" cy="711" r="0.5"></circle>
  <circle cx="29" cy="263" r="0.5"></circle>
  <circle cx="905" cy="740" r="1"></circle>
  <circle cx="222" cy="234" r="1"></circle>
  <circle cx="936" cy="3" r="1"></circle>
  <circle cx="105" cy="116" r="1.5"></circle>
  <circle cx="105" cy="335" r="0.5"></circle>
  <circle cx="438" cy="152" r="1.5"></circle>
  <circle cx="415" cy="520" r="1"></circle>
  <circle cx="418" cy="344" r="0.5"></circle>
  <circle cx="817" cy="349" r="1.5"></circle>
  <circle cx="497" cy="848" r="1.5"></circle>
  <circle cx="38" cy="883" r="1.5"></circle>
  <circle cx="61" cy="703" r="1"></circle>
  <circle cx="348" cy="994" r="1.5"></circle>
  <circle cx="179" cy="431" r="1.5"></circle>
  <circle cx="605" cy="457" r="0.5"></circle>
  <circle cx="379" cy="653" r="1"></circle>
  <circle cx="305" cy="899" r="1"></circle>
  <circle cx="896" cy="129" r="1"></circle>
  <circle cx="396" cy="98" r="1.5"></circle>
  <circle cx="946" cy="722" r="1.5"></circle>
  <circle cx="556" cy="995" r="1.5"></circle>
  <circle cx="889" cy="816" r="0.5"></circle>
  <circle cx="58" cy="147" r="1"></circle>
  <circle cx="285" cy="586" r="1"></circle>
  <circle cx="275" cy="751" r="0.5"></circle>
  <circle cx="533" cy="629" r="1.5"></circle>
  <circle cx="206" cy="136" r="1"></circle>
  <circle cx="651" cy="412" r="1"></circle>
  <circle cx="837" cy="271" r="0.5"></circle>
  <circle cx="230" cy="309" r="0.5"></circle>
  <circle cx="551" cy="973" r="1.5"></circle>
  <circle cx="729" cy="98" r="0.5"></circle>
  <circle cx="692" cy="471" r="1"></circle>
  <circle cx="635" cy="653" r="1"></circle>
  <circle cx="252" cy="753" r="1"></circle>
  <circle cx="368" cy="455" r="1.5"></circle>
  <circle cx="390" cy="50" r="1"></circle>
  <circle cx="340" cy="646" r="1.5"></circle>
  <circle cx="170" cy="878" r="1.5"></circle>
  <circle cx="588" cy="966" r="1.5"></circle>
  <circle cx="725" cy="919" r="0.5"></circle>
  <circle cx="47" cy="151" r="1"></circle>
  <circle cx="361" cy="266" r="1"></circle>
  <circle cx="517" cy="432" r="0.5"></circle>
  <circle cx="146" cy="421" r="1.5"></circle>
  <circle cx="837" cy="937" r="0.5"></circle>
  <circle cx="658" cy="315" r="0.5"></circle>
  <circle cx="661" cy="583" r="0.5"></circle>
  <circle cx="357" cy="373" r="1"></circle>
  <circle cx="197" cy="109" r="1"></circle>
  <circle cx="336" cy="729" r="0.5"></circle>
  <circle cx="311" cy="843" r="0.5"></circle>
  <circle cx="591" cy="863" r="1.5"></circle>
  <circle cx="953" cy="179" r="1"></circle>
  <circle cx="306" cy="193" r="0.5"></circle>
  <circle cx="154" cy="447" r="1.5"></circle>
  <circle cx="94" cy="231" r="1"></circle>
  <circle cx="170" cy="437" r="0.5"></circle>
  <circle cx="247" cy="715" r="0.5"></circle>
  <circle cx="48" cy="627" r="0.5"></circle>
  <circle cx="917" cy="77" r="1.5"></circle>
  <circle cx="553" cy="881" r="1.5"></circle>
  <circle cx="697" cy="161" r="1.5"></circle>
  <circle cx="867" cy="662" r="1.5"></circle>
  <circle cx="261" cy="45" r="0.5"></circle>
  <circle cx="388" cy="571" r="1"></circle>
  <circle cx="414" cy="479" r="0.5"></circle>
  <circle cx="507" cy="267" r="0.5"></circle>
  <circle cx="463" cy="160" r="1.5"></circle>
  <circle cx="124" cy="210" r="1"></circle>
  <circle cx="459" cy="108" r="1.5"></circle>
  <circle cx="377" cy="490" r="1"></circle>
  <circle cx="968" cy="738" r="1.5"></circle>
  <circle cx="884" cy="821" r="1.5"></circle>
  <circle cx="989" cy="392" r="0.5"></circle>
  <circle cx="602" cy="244" r="0.5"></circle>
  <circle cx="91" cy="783" r="1"></circle>
  <circle cx="287" cy="334" r="0.5"></circle>
  <circle cx="668" cy="339" r="1"></circle>
  <circle cx="985" cy="817" r="1"></circle>
  <circle cx="399" cy="111" r="1"></circle>
  <circle cx="700" cy="347" r="1.5"></circle>
  <circle cx="17" cy="696" r="0.5"></circle>
  <circle cx="915" cy="57" r="1.5"></circle>
  <circle cx="69" cy="554" r="0.5"></circle>
  <circle cx="921" cy="727" r="1"></circle>
  <circle cx="149" cy="982" r="0.5"></circle>
  <circle cx="867" cy="959" r="1"></circle>
  <circle cx="358" cy="942" r="1.5"></circle>
  <circle cx="296" cy="574" r="1.5"></circle>
  <circle cx="151" cy="828" r="1"></circle>
  <circle cx="196" cy="718" r="1.5"></circle>
  <circle cx="884" cy="608" r="0.5"></circle>
  <circle cx="990" cy="354" r="1"></circle>
  <circle cx="563" cy="85" r="1"></circle>
  <circle cx="988" cy="229" r="0.5"></circle>
  <circle cx="94" cy="174" r="0.5"></circle>
  <circle cx="161" cy="462" r="1"></circle>
  <circle cx="571" cy="546" r="1.5"></circle>
  <circle cx="523" cy="331" r="0.5"></circle>
  <circle cx="857" cy="581" r="1"></circle>
  <circle cx="801" cy="680" r="0.5"></circle>
  <circle cx="807" cy="227" r="0.5"></circle>
  <circle cx="548" cy="633" r="0.5"></circle>
  <circle cx="423" cy="210" r="1"></circle>
  <circle cx="896" cy="85" r="1"></circle>
  <circle cx="738" cy="461" r="1"></circle>
  <circle cx="814" cy="634" r="0.5"></circle>
  <circle cx="350" cy="711" r="1"></circle>
  <circle cx="808" cy="458" r="1.5"></circle>
  <circle cx="928" cy="796" r="1.5"></circle>
  <circle cx="137" cy="500" r="1.5"></circle>
  <circle cx="559" cy="854" r="1.5"></circle>
  <circle cx="307" cy="419" r="0.5"></circle>
  <circle cx="441" cy="648" r="1.5"></circle>
  <circle cx="26" cy="712" r="0.5"></circle>
  <circle cx="16" cy="500" r="1"></circle>
  <circle cx="681" cy="993" r="1"></circle>
  <circle cx="510" cy="670" r="1.5"></circle>
  <circle cx="575" cy="330" r="1"></circle>
  <circle cx="615" cy="717" r="1.5"></circle>
  <circle cx="337" cy="959" r="0.5"></circle>
  <circle cx="318" cy="967" r="1"></circle>
  <circle cx="162" cy="278" r="1"></circle>
  <circle cx="680" cy="80" r="1"></circle>
  <circle cx="728" cy="511" r="0.5"></circle>
  <circle cx="52" cy="272" r="1.5"></circle>
  <circle cx="980" cy="688" r="0.5"></circle>
  <circle cx="444" cy="921" r="1.5"></circle>
  <circle cx="360" cy="493" r="1"></circle>
  <circle cx="623" cy="506" r="0.5"></circle>
  <circle cx="787" cy="22" r="1.5"></circle>
  <circle cx="198" cy="812" r="1"></circle>
  <circle cx="173" cy="966" r="1"></circle>
  <circle cx="899" cy="963" r="1"></circle>
  <circle cx="350" cy="613" r="1.5"></circle>
  <circle cx="854" cy="497" r="1.5"></circle>
  <circle cx="298" cy="759" r="1"></circle>
  <circle cx="793" cy="156" r="1"></circle>
  <circle cx="360" cy="619" r="1.5"></circle>
  <circle cx="300" cy="917" r="1"></circle>
  <circle cx="319" cy="613" r="0.5"></circle>
  <circle cx="429" cy="175" r="1"></circle>
  <circle cx="634" cy="642" r="1"></circle>
  <circle cx="663" cy="981" r="1.5"></circle>
  <circle cx="843" cy="765" r="1.5"></circle>
  <circle cx="934" cy="540" r="1"></circle>
  <circle cx="577" cy="546" r="0.5"></circle>
  <circle cx="720" cy="806" r="0.5"></circle>
  <circle cx="666" cy="38" r="1"></circle>
  <circle cx="73" cy="498" r="1"></circle>
  <circle cx="468" cy="530" r="1"></circle>
  <circle cx="861" cy="581" r="1"></circle>
  <circle cx="35" cy="178" r="1.5"></circle>
  <circle cx="578" cy="552" r="1.5"></circle>
  <circle cx="696" cy="931" r="1.5"></circle>
  <circle cx="144" cy="205" r="1.5"></circle>
  <circle cx="778" cy="717" r="1"></circle>
  <circle cx="845" cy="262" r="1"></circle>
  <circle cx="205" cy="247" r="1"></circle>
  <circle cx="643" cy="91" r="0.5"></circle>
  <circle cx="866" cy="297" r="1.5"></circle>
  <circle cx="396" cy="326" r="1.5"></circle>
  <circle cx="30" cy="360" r="1.5"></circle>
  <circle cx="430" cy="485" r="0.5"></circle>
  <circle cx="904" cy="419" r="1"></circle>
  <circle cx="691" cy="903" r="1"></circle>
  <circle cx="874" cy="632" r="1"></circle>
  <circle cx="338" cy="961" r="1.5"></circle>
  <circle cx="958" cy="670" r="1"></circle>
  <circle cx="984" cy="562" r="0.5"></circle>
  <circle cx="858" cy="315" r="0.5"></circle>
  <circle cx="327" cy="480" r="0.5"></circle>
  <circle cx="617" cy="400" r="0.5"></circle>
  <circle cx="384" cy="279" r="1.5"></circle>
  <circle cx="179" cy="623" r="0.5"></circle>
  <circle cx="686" cy="913" r="1.5"></circle>
  <circle cx="261" cy="961" r="0.5"></circle>
  <circle cx="400" cy="412" r="1"></circle>
  <circle cx="250" cy="543" r="1"></circle>
  <circle cx="143" cy="500" r="1.5"></circle>
  <circle cx="577" cy="861" r="1.5"></circle>
  <circle cx="952" cy="888" r="0.5"></circle>
  <circle cx="712" cy="390" r="1.5"></circle>
  <circle cx="749" cy="661" r="1.5"></circle>
  <circle cx="89" cy="123" r="1.5"></circle>
  <circle cx="86" cy="295" r="1"></circle>
  <circle cx="871" cy="904" r="1"></circle>
  <circle cx="781" cy="987" r="1"></circle>
  <circle cx="19" cy="607" r="1.5"></circle>
  <circle cx="284" cy="511" r="1.5"></circle>
  <circle cx="12" cy="372" r="1"></circle>
  <circle cx="126" cy="206" r="1"></circle>
  <circle cx="639" cy="325" r="0.5"></circle>
  <circle cx="542" cy="835" r="1.5"></circle>
  <circle cx="411" cy="577" r="1"></circle>
  <circle cx="977" cy="853" r="0.5"></circle>
  <circle cx="65" cy="270" r="1.5"></circle>
  <circle cx="528" cy="512" r="1"></circle>
  <circle cx="968" cy="673" r="1.5"></circle>
  <circle cx="679" cy="796" r="1"></circle>
  <circle cx="154" cy="628" r="1"></circle>
  <circle cx="36" cy="923" r="0.5"></circle>
  <circle cx="566" cy="730" r="1.5"></circle>
  <circle cx="657" cy="912" r="1"></circle>
  <circle cx="146" cy="997" r="1.5"></circle>
  <circle cx="905" cy="452" r="0.5"></circle>
  <circle cx="240" cy="744" r="1.5"></circle>
  <circle cx="366" cy="254" r="0.5"></circle>
  <circle cx="559" cy="248" r="0.5"></circle>
  <circle cx="959" cy="7" r="1"></circle>
  <circle cx="523" cy="900" r="0.5"></circle>
  <circle cx="368" cy="480" r="1"></circle>
  <circle cx="595" cy="163" r="1.5"></circle>
  <circle cx="87" cy="499" r="0.5"></circle>
  <circle cx="554" cy="531" r="1"></circle>
  <circle cx="653" cy="28" r="0.5"></circle>
  <circle cx="863" cy="926" r="1.5"></circle>
  <circle cx="767" cy="496" r="1"></circle>
  <circle cx="539" cy="693" r="1.5"></circle>
  <circle cx="623" cy="111" r="1"></circle>
  <circle cx="50" cy="709" r="0.5"></circle>
  <circle cx="486" cy="623" r="1.5"></circle>
  <circle cx="889" cy="627" r="1.5"></circle>
  <circle cx="714" cy="518" r="1.5"></circle>
  <circle cx="496" cy="869" r="0.5"></circle>
  <circle cx="412" cy="167" r="1"></circle>
  <circle cx="963" cy="562" r="1"></circle>
  <circle cx="554" cy="448" r="1"></circle>
  <circle cx="754" cy="568" r="1.5"></circle>
  <circle cx="164" cy="394" r="1.5"></circle>
  <circle cx="510" cy="205" r="1.5"></circle>
  <circle cx="383" cy="602" r="0.5"></circle>
  <circle cx="3" cy="447" r="1"></circle>
  <circle cx="148" cy="581" r="0.5"></circle>
  <circle cx="278" cy="611" r="1.5"></circle>
  <circle cx="84" cy="98" r="0.5"></circle>
  <circle cx="94" cy="739" r="1"></circle>
  <circle cx="458" cy="395" r="0.5"></circle>
  <circle cx="262" cy="648" r="1"></circle>
  <circle cx="508" cy="968" r="0.5"></circle>
  <circle cx="780" cy="155" r="1.5"></circle>
  <circle cx="604" cy="175" r="0.5"></circle>
  <circle cx="568" cy="959" r="0.5"></circle>
  <circle cx="847" cy="339" r="0.5"></circle>
  <circle cx="499" cy="647" r="1.5"></circle>
  <circle cx="580" cy="289" r="1.5"></circle>
  <circle cx="182" cy="337" r="1"></circle>
  <circle cx="172" cy="593" r="0.5"></circle>
  <circle cx="955" cy="744" r="1"></circle>
  <circle cx="643" cy="220" r="0.5"></circle>
  <circle cx="406" cy="277" r="1"></circle>
  <circle cx="213" cy="961" r="1.5"></circle>
  <circle cx="28" cy="583" r="1.5"></circle>
  <circle cx="462" cy="693" r="1"></circle>
  <circle cx="465" cy="802" r="0.5"></circle>
  <circle cx="176" cy="964" r="1.5"></circle>
  <circle cx="319" cy="102" r="1.5"></circle>
  <circle cx="972" cy="540" r="1"></circle>
  <circle cx="294" cy="156" r="0.5"></circle>
  <circle cx="454" cy="657" r="1"></circle>
  <circle cx="929" cy="844" r="1"></circle>
  <circle cx="422" cy="985" r="0.5"></circle>
  <circle cx="839" cy="724" r="1.5"></circle>
  <circle cx="793" cy="322" r="1.5"></circle>
  <circle cx="1" cy="363" r="1.5"></circle>
  <circle cx="861" cy="58" r="0.5"></circle>
  <circle cx="470" cy="262" r="0.5"></circle>
  <circle cx="218" cy="425" r="1"></circle>
  <circle cx="42" cy="385" r="1"></circle>
  <circle cx="146" cy="580" r="1.5"></circle>
  <circle cx="206" cy="748" r="0.5"></circle>
  <circle cx="245" cy="303" r="1"></circle>
  <circle cx="315" cy="232" r="1.5"></circle>
  <circle cx="494" cy="947" r="1"></circle>
  <circle cx="502" cy="801" r="1.5"></circle>
  <circle cx="53" cy="774" r="1"></circle>
  <circle cx="485" cy="6" r="1"></circle>
  <circle cx="764" cy="765" r="1"></circle>
  <circle cx="802" cy="723" r="1.5"></circle>
  <circle cx="965" cy="824" r="1.5"></circle>
  <circle cx="950" cy="480" r="0.5"></circle>
  <circle cx="499" cy="576" r="0.5"></circle>
  <circle cx="45" cy="499" r="1"></circle>
  <circle cx="632" cy="381" r="1.5"></circle>
  <circle cx="548" cy="55" r="0.5"></circle>
  <circle cx="803" cy="451" r="1"></circle>
  <circle cx="878" cy="886" r="0.5"></circle>
  <circle cx="358" cy="161" r="1.5"></circle>
  <circle cx="721" cy="839" r="1.5"></circle>
  <circle cx="229" cy="375" r="0.5"></circle>
  <circle cx="939" cy="519" r="1"></circle>
  <circle cx="520" cy="863" r="1"></circle>
  <circle cx="350" cy="74" r="1.5"></circle>
  <circle cx="293" cy="560" r="0.5"></circle>
  <circle cx="183" cy="774" r="0.5"></circle>
  <circle cx="629" cy="524" r="1.5"></circle>
  <circle cx="222" cy="194" r="1"></circle>
  <circle cx="382" cy="378" r="0.5"></circle>
  <circle cx="203" cy="717" r="0.5"></circle>
  <circle cx="880" cy="565" r="1"></circle>
  <circle cx="876" cy="896" r="0.5"></circle>
  <circle cx="264" cy="557" r="0.5"></circle>
  <circle cx="660" cy="469" r="0.5"></circle>
  <circle cx="161" cy="482" r="1"></circle>
  <circle cx="146" cy="453" r="0.5"></circle>
  <circle cx="508" cy="258" r="0.5"></circle>
  <circle cx="534" cy="362" r="0.5"></circle>
  <circle cx="500" cy="593" r="0.5"></circle>
  <circle cx="836" cy="238" r="1"></circle>
  <circle cx="933" cy="920" r="1"></circle>
  <circle cx="24" cy="318" r="1"></circle>
  <circle cx="456" cy="592" r="0.5"></circle>
  <circle cx="342" cy="862" r="1.5"></circle>
  <circle cx="189" cy="989" r="0.5"></circle>
  <circle cx="68" cy="890" r="1.5"></circle>
  <circle cx="632" cy="878" r="0.5"></circle>
  <circle cx="766" cy="259" r="0.5"></circle>
  <circle cx="530" cy="827" r="1.5"></circle>
  <circle cx="330" cy="876" r="0.5"></circle>
  <circle cx="324" cy="275" r="1.5"></circle>
  <circle cx="847" cy="911" r="1.5"></circle>
  <circle cx="711" cy="300" r="0.5"></circle>
  <circle cx="739" cy="800" r="1"></circle>
  <circle cx="336" cy="882" r="1.5"></circle>
  <circle cx="419" cy="577" r="1.5"></circle>
  <circle cx="720" cy="45" r="0.5"></circle>
  <circle cx="529" cy="896" r="1"></circle>
  <circle cx="701" cy="818" r="1.5"></circle>
  <circle cx="540" cy="651" r="1"></circle>
  <circle cx="819" cy="105" r="1.5"></circle>
  <circle cx="14" cy="797" r="0.5"></circle>
  <circle cx="879" cy="883" r="1.5"></circle>
  <circle cx="950" cy="932" r="1.5"></circle>
  <circle cx="291" cy="191" r="1"></circle>
  <circle cx="488" cy="431" r="1.5"></circle>
  <circle cx="3" cy="411" r="1.5"></circle>
  <circle cx="486" cy="704" r="1"></circle>
  <circle cx="315" cy="496" r="0.5"></circle>
  <circle cx="498" cy="820" r="1"></circle>
  <circle cx="341" cy="238" r="1.5"></circle>
  <circle cx="420" cy="69" r="0.5"></circle>
  <circle cx="359" cy="762" r="0.5"></circle>
  <circle cx="902" cy="740" r="0.5"></circle>
  <circle cx="990" cy="136" r="1"></circle>
  <circle cx="38" cy="620" r="1.5"></circle>
  <circle cx="98" cy="895" r="1.5"></circle>
  <circle cx="288" cy="916" r="0.5"></circle>
  <circle cx="520" cy="385" r="1"></circle>
  <circle cx="642" cy="640" r="0.5"></circle>
  <circle cx="985" cy="752" r="1"></circle>
  <circle cx="239" cy="205" r="1.5"></circle>
  <circle cx="897" cy="2" r="1.5"></circle>
  <circle cx="343" cy="601" r="1"></circle>
  <circle cx="632" cy="869" r="0.5"></circle>
  <circle cx="860" cy="733" r="0.5"></circle>
  <circle cx="770" cy="221" r="0.5"></circle>
  <circle cx="764" cy="845" r="1.5"></circle>
  <circle cx="592" cy="702" r="1.5"></circle>
  <circle cx="237" cy="403" r="1"></circle>
  <circle cx="469" cy="302" r="1.5"></circle>
  <circle cx="794" cy="235" r="1.5"></circle>
  <circle cx="64" cy="850" r="1.5"></circle>
  <circle cx="44" cy="617" r="1.5"></circle>
  <circle cx="955" cy="213" r="1.5"></circle>
  <circle cx="499" cy="363" r="0.5"></circle>
  <circle cx="497" cy="312" r="1.5"></circle>
  <circle cx="928" cy="617" r="1.5"></circle>
  <circle cx="81" cy="732" r="1"></circle>
  <circle cx="334" cy="173" r="1.5"></circle>
  <circle cx="568" cy="841" r="0.5"></circle>
  <circle cx="599" cy="809" r="0.5"></circle>
  <circle cx="149" cy="675" r="0.5"></circle>
  <circle cx="933" cy="404" r="1"></circle>
  <circle cx="15" cy="787" r="1.5"></circle>
  <circle cx="464" cy="409" r="1.5"></circle>
  <circle cx="765" cy="18" r="1"></circle>
  <circle cx="178" cy="572" r="0.5"></circle>
  <circle cx="627" cy="561" r="0.5"></circle>
  <circle cx="711" cy="168" r="1.5"></circle>
  <circle cx="985" cy="705" r="1"></circle>
  <circle cx="635" cy="616" r="0.5"></circle>
  <circle cx="627" cy="320" r="0.5"></circle>
  <circle cx="407" cy="491" r="0.5"></circle>
  <circle cx="450" cy="559" r="1"></circle>
  <circle cx="956" cy="238" r="1.5"></circle>
  <circle cx="391" cy="478" r="0.5"></circle>
  <circle cx="90" cy="846" r="1"></circle>
  <circle cx="890" cy="7" r="1.5"></circle>
  <circle cx="565" cy="392" r="1.5"></circle>
  <circle cx="272" cy="208" r="1"></circle>
  <circle cx="556" cy="675" r="1.5"></circle>
  <circle cx="830" cy="691" r="1"></circle>
  <circle cx="235" cy="890" r="1"></circle>
  <circle cx="967" cy="200" r="0.5"></circle>
  <circle cx="184" cy="26" r="0.5"></circle>
  <circle cx="608" cy="143" r="1.5"></circle>
  <circle cx="967" cy="16" r="1.5"></circle>
  <circle cx="339" cy="553" r="1.5"></circle>
  <circle cx="775" cy="596" r="0.5"></circle>
  <circle cx="961" cy="710" r="1"></circle>
  <circle cx="228" cy="908" r="0.5"></circle>
  <circle cx="437" cy="144" r="0.5"></circle>
  <circle cx="352" cy="593" r="1.5"></circle>
  <circle cx="745" cy="350" r="1.5"></circle>
  <circle cx="686" cy="324" r="1"></circle>
  <circle cx="243" cy="323" r="1.5"></circle>
  <circle cx="609" cy="778" r="0.5"></circle>
  <circle cx="374" cy="312" r="0.5"></circle>
  <circle cx="848" cy="321" r="0.5"></circle>
  <circle cx="707" cy="900" r="1"></circle>
  <circle cx="841" cy="979" r="0.5"></circle>
  <circle cx="879" cy="225" r="0.5"></circle>
  <circle cx="532" cy="611" r="1.5"></circle>
  <circle cx="212" cy="179" r="1"></circle>
  <circle cx="448" cy="800" r="0.5"></circle>
  <circle cx="104" cy="587" r="1.5"></circle>
  <circle cx="821" cy="984" r="0.5"></circle>
  <circle cx="173" cy="856" r="0.5"></circle>
  <circle cx="748" cy="127" r="0.5"></circle>
  <circle cx="97" cy="950" r="1"></circle>
  <circle cx="931" cy="429" r="1.5"></circle>
  <circle cx="629" cy="904" r="1"></circle>
  <circle cx="648" cy="238" r="0.5"></circle>
  <circle cx="487" cy="615" r="1"></circle>
  <circle cx="229" cy="23" r="0.5"></circle>
  <circle cx="471" cy="742" r="1.5"></circle>
  <circle cx="153" cy="74" r="1.5"></circle>
  <circle cx="107" cy="788" r="1.5"></circle>
  <circle cx="648" cy="301" r="0.5"></circle>
  <circle cx="96" cy="333" r="0.5"></circle>
  <circle cx="550" cy="498" r="0.5"></circle>
  <circle cx="608" cy="922" r="1"></circle>
  <circle cx="631" cy="814" r="0.5"></circle>
  <circle cx="35" cy="465" r="0.5"></circle>
  <circle cx="95" cy="236" r="0.5"></circle>
  <circle cx="535" cy="896" r="0.5"></circle>
  <circle cx="403" cy="991" r="1"></circle>
  <circle cx="991" cy="541" r="1.5"></circle>
  <circle cx="918" cy="319" r="1.5"></circle>
  <circle cx="386" cy="867" r="1"></circle>
  <circle cx="419" cy="238" r="1"></circle>
  <circle cx="513" cy="818" r="1.5"></circle>
  <circle cx="722" cy="781" r="0.5"></circle>
  <circle cx="37" cy="648" r="0.5"></circle>
  <circle cx="315" cy="316" r="1.5"></circle>
  <circle cx="537" cy="661" r="1"></circle>
  <circle cx="558" cy="48" r="1"></circle>
  <circle cx="5" cy="590" r="1"></circle>
  <circle cx="214" cy="760" r="1"></circle>
  <circle cx="467" cy="934" r="0.5"></circle>
  <circle cx="41" cy="622" r="1"></circle>
  <circle cx="62" cy="433" r="1"></circle>
  <circle cx="415" cy="237" r="1.5"></circle>
  <circle cx="549" cy="316" r="1.5"></circle>
  <circle cx="617" cy="488" r="0.5"></circle>
  <circle cx="586" cy="433" r="1.5"></circle>
  <circle cx="961" cy="291" r="1.5"></circle>
  <circle cx="709" cy="287" r="1"></circle>
  <circle cx="524" cy="543" r="0.5"></circle>
  <circle cx="935" cy="278" r="1"></circle>
  <circle cx="195" cy="238" r="1"></circle>
  <circle cx="379" cy="946" r="0.5"></circle>
  <circle cx="457" cy="206" r="0.5"></circle>
  <circle cx="690" cy="523" r="1.5"></circle>
  <circle cx="42" cy="798" r="0.5"></circle>
  <circle cx="261" cy="594" r="1"></circle>
  <circle cx="417" cy="73" r="1.5"></circle>
  <circle cx="990" cy="23" r="1.5"></circle>
  <circle cx="34" cy="77" r="0.5"></circle>
  <circle cx="934" cy="752" r="1.5"></circle>
  <circle cx="718" cy="485" r="0.5"></circle>
  <circle cx="824" cy="983" r="1"></circle>
  <circle cx="186" cy="152" r="0.5"></circle>
  <circle cx="43" cy="551" r="1.5"></circle>
  <circle cx="350" cy="279" r="0.5"></circle>
  <circle cx="840" cy="209" r="0.5"></circle>
  <circle cx="504" cy="680" r="1"></circle>
  <circle cx="499" cy="327" r="1"></circle>
  <circle cx="159" cy="986" r="1"></circle>
  <circle cx="30" cy="495" r="1.5"></circle>
  <circle cx="203" cy="822" r="1.5"></circle>
  <circle cx="460" cy="859" r="1.5"></circle>
  <circle cx="149" cy="479" r="0.5"></circle>
  <circle cx="889" cy="201" r="1.5"></circle>
  <circle cx="134" cy="283" r="1"></circle>
  <circle cx="713" cy="25" r="1.5"></circle>
  <circle cx="24" cy="837" r="0.5"></circle>
  <circle cx="765" cy="338" r="0.5"></circle>
  <circle cx="462" cy="537" r="1"></circle>
  <circle cx="434" cy="411" r="0.5"></circle>
  <circle cx="774" cy="32" r="1.5"></circle>
  <circle cx="809" cy="762" r="0.5"></circle>
  <circle cx="882" cy="332" r="1.5"></circle>
  <circle cx="835" cy="966" r="0.5"></circle>
  <circle cx="765" cy="236" r="1"></circle>
  <circle cx="695" cy="329" r="1"></circle>
  <circle cx="199" cy="122" r="1"></circle>
  <circle cx="747" cy="506" r="1.5"></circle>
  <circle cx="74" cy="735" r="1.5"></circle>
  <circle cx="725" cy="468" r="1"></circle>
  <circle cx="603" cy="927" r="1.5"></circle>
  <circle cx="38" cy="787" r="1.5"></circle>
  <circle cx="472" cy="914" r="1.5"></circle>
  <circle cx="156" cy="167" r="1"></circle>
  <circle cx="345" cy="392" r="0.5"></circle>
  <circle cx="194" cy="254" r="1.5"></circle>
  <circle cx="523" cy="79" r="1.5"></circle>
  <circle cx="383" cy="845" r="1"></circle>
  <circle cx="75" cy="981" r="1.5"></circle>
  <circle cx="440" cy="65" r="1.5"></circle>
  <circle cx="459" cy="645" r="1.5"></circle>
  <circle cx="385" cy="653" r="0.5"></circle>
  <circle cx="17" cy="474" r="0.5"></circle>
  <circle cx="187" cy="276" r="0.5"></circle>
  <circle cx="201" cy="526" r="1"></circle>
  <circle cx="39" cy="343" r="1.5"></circle>
  <circle cx="513" cy="741" r="0.5"></circle>
  <circle cx="358" cy="709" r="1.5"></circle>
  <circle cx="109" cy="741" r="0.5"></circle>
  <circle cx="669" cy="783" r="0.5"></circle>
  <circle cx="531" cy="709" r="1"></circle>
  <circle cx="439" cy="38" r="1"></circle>
  <circle cx="852" cy="524" r="1.5"></circle>
  <circle cx="608" cy="483" r="1"></circle>
  <circle cx="132" cy="183" r="0.5"></circle>
  <circle cx="872" cy="457" r="1"></circle>
  <circle cx="717" cy="47" r="1.5"></circle>
  <circle cx="806" cy="199" r="1.5"></circle>
  <circle cx="730" cy="289" r="1"></circle>
  <circle cx="210" cy="657" r="1"></circle>
  <circle cx="191" cy="229" r="0.5"></circle>
  <circle cx="252" cy="630" r="1"></circle>
  <circle cx="986" cy="807" r="0.5"></circle>
  <circle cx="598" cy="77" r="1"></circle>
  <circle cx="832" cy="924" r="1.5"></circle>
  <circle cx="138" cy="45" r="0.5"></circle>
  <circle cx="835" cy="521" r="1.5"></circle>
  <circle cx="355" cy="443" r="1"></circle>
  <circle cx="521" cy="640" r="0.5"></circle>
  <circle cx="379" cy="30" r="1.5"></circle>
  <circle cx="444" cy="63" r="1.5"></circle>
  <circle cx="588" cy="609" r="1.5"></circle>
  <circle cx="192" cy="6" r="1"></circle>
  <circle cx="459" cy="907" r="1"></circle>
  <circle cx="248" cy="346" r="1"></circle>
  <circle cx="528" cy="730" r="0.5"></circle>
  <circle cx="456" cy="598" r="0.5"></circle>
  <circle cx="598" cy="483" r="1"></circle>
  <circle cx="497" cy="212" r="1"></circle>
  <circle cx="832" cy="444" r="0.5"></circle>
  <circle cx="789" cy="868" r="1"></circle>
  <circle cx="850" cy="766" r="1.5"></circle>
  <circle cx="725" cy="111" r="1.5"></circle>
  <circle cx="427" cy="345" r="0.5"></circle>
  <circle cx="921" cy="898" r="1.5"></circle>
  <circle cx="701" cy="224" r="0.5"></circle>
  <circle cx="983" cy="472" r="1.5"></circle>
  <circle cx="419" cy="692" r="1"></circle>
  <circle cx="489" cy="870" r="1.5"></circle>
  <circle cx="994" cy="144" r="1.5"></circle>
  <circle cx="11" cy="159" r="1.5"></circle>
  <circle cx="121" cy="129" r="1"></circle>
  <circle cx="362" cy="269" r="0.5"></circle>
  <circle cx="311" cy="477" r="0.5"></circle>
  <circle cx="103" cy="499" r="0.5"></circle>
  <circle cx="993" cy="626" r="1"></circle>
  <circle cx="620" cy="311" r="0.5"></circle>
  <circle cx="957" cy="404" r="0.5"></circle>
  <circle cx="858" cy="200" r="0.5"></circle>
  <circle cx="292" cy="223" r="0.5"></circle>
  <circle cx="781" cy="197" r="1.5"></circle>
  <circle cx="985" cy="628" r="1.5"></circle>
  <circle cx="625" cy="227" r="1.5"></circle>
  <circle cx="939" cy="486" r="0.5"></circle>
  <circle cx="756" cy="165" r="1"></circle>
  <circle cx="303" cy="223" r="1.5"></circle>
  <circle cx="599" cy="330" r="0.5"></circle>
  <circle cx="413" cy="332" r="0.5"></circle>
  <circle cx="82" cy="166" r="1"></circle>
  <circle cx="106" cy="342" r="0.5"></circle>
  <circle cx="526" cy="989" r="1.5"></circle>
  <circle cx="910" cy="808" r="1.5"></circle>
  <circle cx="590" cy="534" r="0.5"></circle>
  <circle cx="121" cy="693" r="0.5"></circle>
  <circle cx="720" cy="764" r="0.5"></circle>
  <circle cx="823" cy="639" r="1.5"></circle>
  <circle cx="594" cy="389" r="1.5"></circle>
  <circle cx="296" cy="910" r="1.5"></circle>
  <circle cx="92" cy="964" r="0.5"></circle>
  <circle cx="778" cy="820" r="0.5"></circle>
  <circle cx="553" cy="643" r="1.5"></circle>
  <circle cx="117" cy="635" r="0.5"></circle>
  <circle cx="411" cy="472" r="1.5"></circle>
  <circle cx="124" cy="168" r="1.5"></circle>
  <circle cx="180" cy="143" r="0.5"></circle>
  <circle cx="90" cy="772" r="0.5"></circle>
  <circle cx="840" cy="171" r="0.5"></circle>
  <circle cx="513" cy="291" r="0.5"></circle>
  <circle cx="168" cy="286" r="1.5"></circle>
  <circle cx="184" cy="873" r="1"></circle>
  <circle cx="375" cy="305" r="1"></circle>
  <circle cx="742" cy="868" r="1.5"></circle>
  <circle cx="776" cy="18" r="1"></circle>
  <circle cx="347" cy="736" r="0.5"></circle>
  <circle cx="263" cy="493" r="1"></circle>
  <circle cx="199" cy="341" r="0.5"></circle>
  <circle cx="920" cy="639" r="1.5"></circle>
  <circle cx="41" cy="963" r="1"></circle>
  <circle cx="87" cy="574" r="0.5"></circle>
  <circle cx="466" cy="350" r="1.5"></circle>
  <circle cx="137" cy="433" r="0.5"></circle>
  <circle cx="835" cy="118" r="1.5"></circle>
  <circle cx="895" cy="215" r="1"></circle>
  <circle cx="4" cy="603" r="1"></circle>
  <circle cx="666" cy="581" r="0.5"></circle>
  <circle cx="656" cy="744" r="1.5"></circle>
  <circle cx="603" cy="298" r="1.5"></circle>
  <circle cx="872" cy="855" r="0.5"></circle>
  <circle cx="693" cy="71" r="1.5"></circle>
  <circle cx="268" cy="145" r="1"></circle>
  <circle cx="367" cy="991" r="1.5"></circle>
  <circle cx="417" cy="994" r="1.5"></circle>
  <circle cx="741" cy="607" r="1"></circle>
  <circle cx="332" cy="294" r="1.5"></circle>
  <circle cx="381" cy="160" r="1"></circle>
  <circle cx="801" cy="293" r="1"></circle>
  <circle cx="795" cy="505" r="1"></circle>
  <circle cx="953" cy="400" r="1"></circle>
  <circle cx="235" cy="890" r="1.5"></circle>
  <circle cx="536" cy="432" r="1.5"></circle>
  <circle cx="593" cy="358" r="0.5"></circle>
  <circle cx="541" cy="809" r="1.5"></circle>
  <circle cx="180" cy="506" r="1.5"></circle>
  <circle cx="108" cy="126" r="0.5"></circle>
  <circle cx="2" cy="418" r="1"></circle>
  <circle cx="252" cy="710" r="1.5"></circle>
  <circle cx="509" cy="932" r="1"></circle>
  <circle cx="185" cy="429" r="1.5"></circle>
  <circle cx="926" cy="821" r="1.5"></circle>
  <circle cx="661" cy="330" r="1.5"></circle>
  <circle cx="805" cy="208" r="1"></circle>
  <circle cx="273" cy="378" r="1.5"></circle>
  <circle cx="934" cy="688" r="1"></circle>
  <circle cx="15" cy="439" r="1.5"></circle>
  <circle cx="720" cy="403" r="1"></circle>
  <circle cx="708" cy="419" r="0.5"></circle>
  <circle cx="89" cy="638" r="0.5"></circle>
  <circle cx="276" cy="474" r="1.5"></circle>
  <circle cx="909" cy="295" r="1.5"></circle>
  <circle cx="934" cy="541" r="0.5"></circle>
  <circle cx="443" cy="282" r="1"></circle>
  <circle cx="625" cy="489" r="1"></circle>
  <circle cx="601" cy="163" r="1.5"></circle>
  <circle cx="102" cy="568" r="1.5"></circle>
  <circle cx="862" cy="854" r="0.5"></circle>
  <circle cx="683" cy="942" r="1"></circle>
  <circle cx="114" cy="547" r="1"></circle>
  <circle cx="356" cy="177" r="1.5"></circle>
  <circle cx="587" cy="789" r="1"></circle>
  <circle cx="825" cy="150" r="1"></circle>
  <circle cx="420" cy="474" r="1"></circle>
  <circle cx="578" cy="919" r="0.5"></circle>
  <circle cx="292" cy="98" r="1.5"></circle>
  <circle cx="708" cy="584" r="1.5"></circle>
  <circle cx="353" cy="342" r="1.5"></circle>
  <circle cx="69" cy="371" r="1.5"></circle>
  <circle cx="711" cy="36" r="0.5"></circle>
  <circle cx="737" cy="863" r="1"></circle>
  <circle cx="725" cy="630" r="1"></circle>
  <circle cx="981" cy="593" r="1.5"></circle>
  <circle cx="845" cy="484" r="0.5"></circle>
  <circle cx="494" cy="435" r="0.5"></circle>
  <circle cx="594" cy="525" r="0.5"></circle>
  <circle cx="106" cy="104" r="1.5"></circle>
  <circle cx="795" cy="875" r="1.5"></circle>
  <circle cx="315" cy="332" r="0.5"></circle>
  <circle cx="134" cy="907" r="1"></circle>
  <circle cx="207" cy="159" r="1.5"></circle>
  <circle cx="836" cy="48" r="0.5"></circle>
  <circle cx="628" cy="891" r="1"></circle>
  <circle cx="646" cy="470" r="0.5"></circle>
  <circle cx="436" cy="260" r="1"></circle>
  <circle cx="474" cy="575" r="0.5"></circle>
  <circle cx="579" cy="817" r="0.5"></circle>
  <circle cx="243" cy="343" r="0.5"></circle>
  <circle cx="576" cy="424" r="1.5"></circle>
  <circle cx="655" cy="61" r="1"></circle>
  <circle cx="319" cy="882" r="1.5"></circle>
  <circle cx="785" cy="593" r="1.5"></circle>
  <circle cx="906" cy="891" r="0.5"></circle>
  <circle cx="575" cy="238" r="1"></circle>
  <circle cx="66" cy="716" r="0.5"></circle>
  <circle cx="581" cy="624" r="1"></circle>
  <circle cx="655" cy="305" r="1.5"></circle>
  <circle cx="862" cy="285" r="1.5"></circle>
  <circle cx="803" cy="435" r="0.5"></circle>
  <circle cx="992" cy="479" r="0.5"></circle>
  <circle cx="54" cy="833" r="1"></circle>
  <circle cx="3" cy="390" r="1"></circle>
  <circle cx="318" cy="238" r="1.5"></circle>
  <circle cx="158" cy="581" r="1"></circle>
  <circle cx="802" cy="124" r="1.5"></circle>
  <circle cx="198" cy="157" r="1.5"></circle>
  <circle cx="959" cy="238" r="0.5"></circle>
  <circle cx="376" cy="975" r="0.5"></circle>
  <circle cx="786" cy="548" r="0.5"></circle>
  <circle cx="647" cy="197" r="0.5"></circle>
  <circle cx="766" cy="679" r="1"></circle>
  <circle cx="599" cy="141" r="1"></circle>
  <circle cx="88" cy="775" r="1.5"></circle>
  <circle cx="42" cy="878" r="0.5"></circle>
  <circle cx="758" cy="44" r="0.5"></circle>
  <circle cx="857" cy="616" r="1.5"></circle>
  <circle cx="347" cy="551" r="1"></circle>
  <circle cx="85" cy="412" r="1.5"></circle>
  <circle cx="696" cy="843" r="1.5"></circle>
  <circle cx="449" cy="12" r="0.5"></circle>
  <circle cx="272" cy="994" r="0.5"></circle>
  <circle cx="704" cy="412" r="1"></circle>
  <circle cx="795" cy="480" r="1.5"></circle>
  <circle cx="535" cy="747" r="1"></circle>
  <circle cx="618" cy="727" r="1"></circle>
  <circle cx="667" cy="297" r="0.5"></circle>
  <circle cx="963" cy="358" r="1"></circle>
  <circle cx="940" cy="225" r="0.5"></circle>
  <circle cx="478" cy="225" r="0.5"></circle>
  <circle cx="849" cy="150" r="1"></circle>
  <circle cx="183" cy="868" r="1"></circle>
  <circle cx="223" cy="892" r="0.5"></circle>
  <circle cx="748" cy="61" r="1.5"></circle>
  <circle cx="688" cy="579" r="1"></circle>
  <circle cx="872" cy="334" r="1"></circle>
  <circle cx="781" cy="897" r="1.5"></circle>
  <circle cx="273" cy="841" r="1"></circle>
  <circle cx="771" cy="840" r="1.5"></circle>
  <circle cx="404" cy="520" r="1"></circle>
  <circle cx="55" cy="860" r="0.5"></circle>
  <circle cx="442" cy="138" r="0.5"></circle>
  <circle cx="719" cy="863" r="1.5"></circle>
  <circle cx="529" cy="963" r="1.5"></circle>
  <circle cx="380" cy="441" r="1"></circle>
  <circle cx="827" cy="248" r="1.5"></circle>
  <circle cx="413" cy="471" r="1"></circle>
  <circle cx="217" cy="156" r="0.5"></circle>
  <circle cx="448" cy="413" r="0.5"></circle>
  <circle cx="758" cy="111" r="1.5"></circle>
  <circle cx="949" cy="514" r="1.5"></circle>
  <circle cx="209" cy="848" r="0.5"></circle>
  <circle cx="422" cy="479" r="1"></circle>
  <circle cx="163" cy="375" r="0.5"></circle>
  <circle cx="959" cy="872" r="1.5"></circle>
  <circle cx="127" cy="219" r="0.5"></circle>
  <circle cx="378" cy="979" r="1.5"></circle>
  <circle cx="199" cy="342" r="1"></circle>
  <circle cx="833" cy="936" r="1"></circle>
  <circle cx="754" cy="744" r="0.5"></circle>
  <circle cx="462" cy="263" r="1.5"></circle>
  <circle cx="397" cy="386" r="1"></circle>
  <circle cx="126" cy="144" r="1.5"></circle>
  <circle cx="42" cy="93" r="1"></circle>
  <circle cx="466" cy="970" r="1.5"></circle>
  <circle cx="158" cy="948" r="0.5"></circle>
  <circle cx="653" cy="989" r="1.5"></circle>
  <circle cx="357" cy="133" r="1.5"></circle>
  <circle cx="710" cy="66" r="1.5"></circle>
  <circle cx="271" cy="936" r="1"></circle>
  <circle cx="72" cy="715" r="1"></circle>
  <circle cx="790" cy="420" r="0.5"></circle>
  <circle cx="889" cy="325" r="1"></circle>
  <circle cx="133" cy="722" r="1"></circle>
  <circle cx="61" cy="597" r="1.5"></circle>
  <circle cx="30" cy="59" r="1.5"></circle>
  <circle cx="727" cy="912" r="0.5"></circle>
  <circle cx="661" cy="265" r="1"></circle>
  <circle cx="699" cy="825" r="1.5"></circle>
  <circle cx="389" cy="521" r="0.5"></circle>
  <circle cx="194" cy="720" r="1"></circle>
  <circle cx="848" cy="744" r="0.5"></circle>
  <circle cx="339" cy="138" r="1.5"></circle>
  <circle cx="188" cy="535" r="0.5"></circle>
  <circle cx="323" cy="680" r="0.5"></circle>
  <circle cx="809" cy="146" r="0.5"></circle>
  <circle cx="137" cy="630" r="0.5"></circle>
  <circle cx="874" cy="81" r="1"></circle>
  <circle cx="69" cy="532" r="0.5"></circle>
  <circle cx="194" cy="743" r="0.5"></circle>
  <circle cx="851" cy="675" r="0.5"></circle>
  <circle cx="880" cy="913" r="1.5"></circle>
  <circle cx="10" cy="566" r="0.5"></circle>
  <circle cx="788" cy="430" r="0.5"></circle>
  <circle cx="439" cy="656" r="1.5"></circle>
  <circle cx="453" cy="243" r="0.5"></circle>
  <circle cx="135" cy="922" r="1"></circle>
  <circle cx="18" cy="773" r="1"></circle>
  <circle cx="12" cy="676" r="1.5"></circle>
  <circle cx="240" cy="839" r="0.5"></circle>
  <circle cx="160" cy="354" r="0.5"></circle>
  <circle cx="390" cy="655" r="1.5"></circle>
  <circle cx="572" cy="860" r="1.5"></circle>
  <circle cx="61" cy="577" r="1"></circle>
  <circle cx="739" cy="620" r="1"></circle>
  <circle cx="376" cy="965" r="1.5"></circle>
  <circle cx="816" cy="833" r="0.5"></circle>
  <circle cx="728" cy="652" r="0.5"></circle>
  <circle cx="39" cy="211" r="1"></circle>
  <circle cx="49" cy="592" r="0.5"></circle>
  <circle cx="114" cy="898" r="1.5"></circle>
  <circle cx="458" cy="22" r="1.5"></circle>
  <circle cx="572" cy="56" r="1"></circle>
  <circle cx="423" cy="940" r="1.5"></circle>
  <circle cx="840" cy="761" r="1.5"></circle>
  <circle cx="660" cy="909" r="1.5"></circle>
  <circle cx="334" cy="513" r="1.5"></circle>
  <circle cx="234" cy="390" r="1.5"></circle>
  <circle cx="17" cy="5" r="0.5"></circle>
  <circle cx="697" cy="522" r="1"></circle>
  <circle cx="508" cy="338" r="1.5"></circle>
  <circle cx="687" cy="794" r="1"></circle>
  <circle cx="606" cy="19" r="0.5"></circle>
  <circle cx="331" cy="252" r="1"></circle>
  <circle cx="162" cy="643" r="0.5"></circle>
  <circle cx="416" cy="498" r="0.5"></circle>
  <circle cx="142" cy="361" r="1.5"></circle>
  <circle cx="318" cy="1" r="1.5"></circle>
  <circle cx="950" cy="736" r="0.5"></circle>
  <circle cx="741" cy="158" r="1.5"></circle>
  <circle cx="705" cy="201" r="0.5"></circle>
  <circle cx="343" cy="119" r="1.5"></circle>
  <circle cx="767" cy="736" r="1.5"></circle>
  <circle cx="68" cy="554" r="1.5"></circle>
  <circle cx="688" cy="859" r="0.5"></circle>
  <circle cx="363" cy="777" r="1.5"></circle>
  <circle cx="986" cy="304" r="0.5"></circle>
  <circle cx="415" cy="370" r="1"></circle>
  <circle cx="391" cy="244" r="0.5"></circle>
  <circle cx="156" cy="990" r="1"></circle>
  <circle cx="728" cy="974" r="1"></circle>
  <circle cx="536" cy="173" r="1"></circle>
  <circle cx="241" cy="235" r="0.5"></circle>
  <circle cx="526" cy="611" r="0.5"></circle>
  <circle cx="566" cy="575" r="1.5"></circle>
  <circle cx="4" cy="585" r="1.5"></circle>
  <circle cx="511" cy="315" r="1.5"></circle>
  <circle cx="511" cy="519" r="0.5"></circle>
  <circle cx="393" cy="893" r="1"></circle>
  <circle cx="610" cy="565" r="0.5"></circle>
  <circle cx="372" cy="172" r="1.5"></circle>
  <circle cx="495" cy="414" r="1"></circle>
  <circle cx="117" cy="348" r="1.5"></circle>
  <circle cx="728" cy="228" r="1.5"></circle>
  <circle cx="187" cy="428" r="1"></circle>
  <circle cx="822" cy="690" r="1"></circle>
  <circle cx="467" cy="895" r="1"></circle>
  <circle cx="628" cy="479" r="1"></circle>
  <circle cx="719" cy="288" r="1"></circle>
  <circle cx="313" cy="984" r="0.5"></circle>
  <circle cx="714" cy="693" r="1.5"></circle>
  <circle cx="94" cy="194" r="1"></circle>
  <circle cx="434" cy="581" r="1"></circle>
  <circle cx="795" cy="186" r="0.5"></circle>
  <circle cx="541" cy="369" r="1.5"></circle>
  <circle cx="581" cy="9" r="1.5"></circle>
  <circle cx="844" cy="695" r="0.5"></circle>
  <circle cx="525" cy="424" r="1"></circle>
  <circle cx="294" cy="499" r="0.5"></circle>
  <circle cx="544" cy="641" r="1.5"></circle>
  <circle cx="999" cy="188" r="1.5"></circle>
  <circle cx="662" cy="20" r="1"></circle>
  <circle cx="840" cy="334" r="1.5"></circle>
  <circle cx="922" cy="214" r="0.5"></circle>
  <circle cx="105" cy="92" r="1.5"></circle>
  <circle cx="264" cy="431" r="0.5"></circle>
  <circle cx="891" cy="979" r="1"></circle>
  <circle cx="149" cy="51" r="0.5"></circle>
  <circle cx="558" cy="548" r="1"></circle>
  <circle cx="415" cy="439" r="1.5"></circle>
  <circle cx="688" cy="67" r="0.5"></circle>
  <circle cx="936" cy="54" r="1"></circle>
  <circle cx="410" cy="937" r="1.5"></circle>
  <circle cx="751" cy="933" r="0.5"></circle>
  <circle cx="922" cy="635" r="1.5"></circle>
  <circle cx="381" cy="126" r="1"></circle>
  <circle cx="477" cy="192" r="1"></circle>
  <circle cx="921" cy="915" r="1"></circle>
  <circle cx="848" cy="516" r="1"></circle>
  <circle cx="69" cy="581" r="1.5"></circle>
  <circle cx="681" cy="992" r="1"></circle>
  <circle cx="561" cy="449" r="1"></circle>
  <circle cx="411" cy="799" r="0.5"></circle>
  <circle cx="944" cy="874" r="1.5"></circle>
  <circle cx="555" cy="919" r="0.5"></circle>
  <circle cx="829" cy="913" r="1.5"></circle>
  <circle cx="235" cy="84" r="0.5"></circle>
  <circle cx="763" cy="829" r="1"></circle>
  <circle cx="486" cy="335" r="1"></circle>
  <circle cx="882" cy="41" r="1.5"></circle>
  <circle cx="450" cy="360" r="1.5"></circle>
  <circle cx="290" cy="894" r="1"></circle>
  <circle cx="170" cy="705" r="1.5"></circle>
  <circle cx="506" cy="837" r="1"></circle>
  <circle cx="923" cy="177" r="1"></circle>
  <circle cx="259" cy="796" r="0.5"></circle>
  <circle cx="320" cy="381" r="0.5"></circle>
  <circle cx="496" cy="353" r="1"></circle>
  <circle cx="385" cy="631" r="1"></circle>
  <circle cx="192" cy="344" r="1.5"></circle>
  <circle cx="606" cy="496" r="1.5"></circle>
  <circle cx="386" cy="464" r="1.5"></circle>
  <circle cx="879" cy="782" r="1.5"></circle>
  <circle cx="833" cy="430" r="1.5"></circle>
  <circle cx="856" cy="427" r="0.5"></circle>
  <circle cx="74" cy="924" r="1"></circle>
  <circle cx="639" cy="101" r="1.5"></circle>
  <circle cx="947" cy="589" r="0.5"></circle>
  <circle cx="890" cy="4" r="1"></circle>
  <circle cx="226" cy="435" r="1.5"></circle>
  <circle cx="615" cy="515" r="1.5"></circle>
  <circle cx="360" cy="749" r="1"></circle>
  <circle cx="994" cy="606" r="1.5"></circle>
  <circle cx="625" cy="594" r="1.5"></circle>
  <circle cx="297" cy="929" r="1.5"></circle>
  <circle cx="853" cy="926" r="1"></circle>
  <circle cx="523" cy="23" r="1.5"></circle>
  <circle cx="864" cy="220" r="1"></circle>
  <circle cx="974" cy="760" r="0.5"></circle>
  <circle cx="652" cy="195" r="0.5"></circle>
  <circle cx="90" cy="967" r="1"></circle>
  <circle cx="452" cy="396" r="1"></circle>
  <circle cx="251" cy="74" r="1"></circle>
  <circle cx="854" cy="617" r="1"></circle>
  <circle cx="192" cy="516" r="1"></circle>
  <circle cx="55" cy="196" r="1"></circle>
</svg>